<?xml version="1.0" encoding="utf-8"?><!-- Generator: Adobe Illustrator 16.0.0, SVG Export Plug-In . SVG Version: 6.00 Build 0)  --><!DOCTYPE svg PUBLIC "-//W3C//DTD SVG 1.1//EN" "http://www.w3.org/Graphics/SVG/1.1/DTD/svg11.dtd"><svg version="1.1" id="Layer_1" xmlns="http://www.w3.org/2000/svg" xmlns:xlink="http://www.w3.org/1999/xlink" x="0px" y="0px" width="76px" height="76px" viewBox="0 0 76 76" enable-background="new 0 0 76 76" xml:space="preserve"><path d="M59.769,37.124c-0.041-0.511-0.085-1.023-0.149-1.533c-0.09-0.691-0.213-1.376-0.36-2.059
	c-0.306-1.411-0.728-2.787-1.253-4.131c-0.449-1.142-0.98-2.245-1.558-3.328c-0.175-0.324-0.173-0.326-0.536-0.24
	c-0.018,0.004-0.035,0.008-0.053,0.012c-1.16,0.244-2.307,0.547-3.437,0.903c-1.12,0.352-2.218,0.758-3.29,1.233
	c-0.857,0.379-1.691,0.8-2.502,1.266c-0.602,0.347-1.182,0.728-1.746,1.131c-0.699,0.499-1.364,1.04-1.98,1.638
	c-0.4,0.39-0.799,0.784-1.163,1.209c-0.395,0.457-0.769,0.929-1.115,1.425c-0.191,0.275-0.187,0.274-0.513,0.213
	c-0.766-0.14-1.537-0.229-2.316-0.228c-0.371,0-0.742-0.007-1.114,0.021c-0.418,0.033-0.836,0.069-1.252,0.126
	c-0.243,0.033-0.484,0.079-0.727,0.116c-0.075,0.011-0.143,0.022-0.194-0.068c-0.232-0.409-0.501-0.794-0.77-1.181
	c-0.483-0.693-1.029-1.337-1.609-1.953c-0.371-0.394-0.773-0.758-1.183-1.111c-0.441-0.378-0.901-0.733-1.38-1.062
	c-0.954-0.656-1.966-1.208-3.03-1.663c-0.795-0.34-1.607-0.631-2.439-0.866c-0.891-0.251-1.794-0.451-2.708-0.604
	c-0.719-0.12-1.442-0.199-2.166-0.278c-0.138-0.016-0.233,0.016-0.274,0.162c-0.021,0.073-0.058,0.14-0.09,0.21
	c-0.38,0.82-0.71,1.661-1.007,2.514c-0.488,1.405-0.874,2.837-1.149,4.3c-0.094,0.505-0.184,1.012-0.25,1.521
	c-0.068,0.531-0.129,1.063-0.173,1.597c-0.043,0.521-0.072,1.042-0.096,1.564c-0.016,0.348-0.003,0.698-0.003,1.048
	c0.002,0.643,0.003,1.286,0.047,1.93c0.039,0.554,0.083,1.105,0.138,1.656c0.063,0.643,0.151,1.285,0.256,1.924
	c0.195,1.188,0.439,2.365,0.744,3.528c0.172,0.657,0.358,1.312,0.552,1.964c0.036,0.117,0.094,0.156,0.211,0.147
	c0.449-0.038,0.899-0.068,1.348-0.107c0.707-0.062,1.411-0.154,2.112-0.267c1.216-0.195,2.413-0.469,3.588-0.838
	c1.349-0.423,2.644-0.975,3.875-1.673c1.129-0.64,2.17-1.401,3.118-2.286c0.394-0.369,0.771-0.758,1.126-1.17
	c0.472-0.545,0.914-1.11,1.31-1.713c0.057-0.085,0.112-0.105,0.209-0.078c0.63,0.178,1.278,0.266,1.93,0.302
	c0.562,0.03,1.127,0.019,1.69-0.024c0.205-0.014,0.41-0.033,0.613-0.061c0.567-0.073,1.131-0.168,1.69-0.289
	c0.083-0.02,0.126,0.008,0.165,0.07c0.081,0.135,0.159,0.27,0.247,0.399c0.384,0.573,0.804,1.116,1.269,1.626
	c0.401,0.441,0.828,0.854,1.28,1.241c0.534,0.457,1.104,0.866,1.696,1.245c0.832,0.53,1.701,0.988,2.605,1.382
	c0.857,0.374,1.734,0.696,2.629,0.97c0.947,0.288,1.905,0.527,2.873,0.73c0.809,0.172,1.625,0.297,2.443,0.424
	c0.427,0.066,0.859,0.111,1.288,0.167c0.108,0.015,0.173-0.019,0.214-0.129c0.08-0.219,0.18-0.429,0.261-0.646
	c0.28-0.752,0.557-1.504,0.794-2.268c0.333-1.064,0.611-2.142,0.823-3.236c0.175-0.889,0.304-1.786,0.386-2.689
	c0.039-0.439,0.091-0.883,0.094-1.322C59.814,39.003,59.844,38.063,59.769,37.124z"></path></svg>