<?xml version="1.0" encoding="UTF-8" standalone="no"?>
<!-- Created with Inkscape (http://www.inkscape.org/) -->

<svg
   xmlns:dc="http://purl.org/dc/elements/1.1/"
   xmlns:cc="http://creativecommons.org/ns#"
   xmlns:rdf="http://www.w3.org/1999/02/22-rdf-syntax-ns#"
   xmlns:svg="http://www.w3.org/2000/svg"
   xmlns="http://www.w3.org/2000/svg"
   xmlns:sodipodi="http://sodipodi.sourceforge.net/DTD/sodipodi-0.dtd"
   xmlns:inkscape="http://www.inkscape.org/namespaces/inkscape"
   id="svg2"
   version="1.1"
   inkscape:version="0.91 r13725"
   xml:space="preserve"
   width="2400"
   height="1350"
   viewBox="0 0 2400 1350"
   sodipodi:docname="v1.dark.svg"
   inkscape:export-filename="/home/dbrown/projects/LearnLinux/tuxlab-assets/logo/v1.dark.png"
   inkscape:export-xdpi="90"
   inkscape:export-ydpi="90"><metadata
     id="metadata8"><rdf:RDF><cc:Work
         rdf:about=""><dc:format>image/svg+xml</dc:format><dc:type
           rdf:resource="http://purl.org/dc/dcmitype/StillImage" /><dc:title /></cc:Work></rdf:RDF></metadata><defs
     id="defs6"><clipPath
       clipPathUnits="userSpaceOnUse"
       id="clipPath16"><path
         d="m 0,1080 1920,0 L 1920,0 0,0 0,1080 Z"
         id="path18"
         inkscape:connector-curvature="0" /></clipPath></defs><sodipodi:namedview
     pagecolor="#ffffff"
     bordercolor="#666666"
     borderopacity="1"
     objecttolerance="10"
     gridtolerance="10"
     guidetolerance="10"
     inkscape:pageopacity="0"
     inkscape:pageshadow="2"
     inkscape:window-width="1920"
     inkscape:window-height="1054"
     id="namedview4"
     showgrid="false"
     inkscape:zoom="0.24666667"
     inkscape:cx="-711.8212"
     inkscape:cy="1315.5976"
     inkscape:window-x="1920"
     inkscape:window-y="0"
     inkscape:window-maximized="1"
     inkscape:current-layer="g10" /><g
     id="g10"
     inkscape:groupmode="layer"
     inkscape:label="v1"
     transform="matrix(1.25,0,0,-1.25,0,1350)"><g
       id="g12"
       transform="matrix(1.0860766,0,0,1.1400224,-689.12075,-63.284465)"><g
         id="g14"
         clip-path="url(#clipPath16)"><g
           id="g20"
           transform="translate(1087.3271,599.2412)"><path
             d="m 0,0 c -0.44,2.686 -2.429,2.867 -4.504,2.902 -2.147,0.037 -4.295,0.022 -6.442,0.008 -0.864,-0.006 -1.406,0.215 -1.479,1.233 -0.367,5.16 -3.045,9.185 -6.472,12.791 -0.178,0.187 -0.367,0.357 -0.548,0.538 -20.93,32.324 -65.076,52.44 -107.88,52.44 -41.802,0 -81.654,-18.233 -103.4,-48.863 -0.883,-0.616 -1.753,-1.264 -2.598,-1.971 -4.626,-3.865 -7.835,-8.607 -8.908,-14.598 -0.219,-1.224 -0.62,-1.611 -1.784,-1.584 -2.246,0.051 -4.495,0.049 -6.741,-0.005 -1.979,-0.049 -3.492,-0.948 -3.759,-2.35 -0.2,-1.062 -0.136,-25.152 -0.109,-26.037 0.045,-1.449 1.064,-2.104 2.268,-2.436 0.476,-0.131 3.464,-0.217 6.627,-0.269 -0.235,-4.995 -0.297,-9.987 -0.297,-14.85 0,-62.387 53.143,-112.963 118.701,-112.963 65.555,0 118.697,50.576 118.697,112.963 0,4.977 0.019,9.957 -0.086,14.884 3.347,0.088 6.5,0.242 6.998,0.442 C -1.108,-27.479 0.048,-0.293 0,0"
             style="fill:#231f20;fill-opacity:1;fill-rule:evenodd;stroke:none"
             id="path22"
             inkscape:connector-curvature="0" /></g><g
           id="g24"
           transform="translate(1087.3271,599.2412)"><path
             d="m 0,0 c -0.44,2.686 -2.429,2.867 -4.504,2.902 -2.147,0.037 -4.295,0.022 -6.442,0.008 -0.864,-0.006 -1.406,0.215 -1.479,1.233 -0.367,5.16 -3.045,9.185 -6.472,12.791 -0.178,0.187 -0.367,0.357 -0.548,0.538 -20.93,32.324 -65.076,52.44 -107.88,52.44 -41.802,0 -81.654,-18.233 -103.4,-48.863 -0.883,-0.616 -1.753,-1.264 -2.598,-1.971 -4.626,-3.865 -7.835,-8.607 -8.908,-14.598 -0.219,-1.224 -0.62,-1.611 -1.784,-1.584 -2.246,0.051 -4.495,0.049 -6.741,-0.005 -1.979,-0.049 -3.492,-0.948 -3.759,-2.35 -0.2,-1.062 -0.136,-25.152 -0.109,-26.037 0.045,-1.449 1.064,-2.104 2.268,-2.436 0.476,-0.131 3.464,-0.217 6.627,-0.269 -0.235,-4.995 -0.297,-9.987 -0.297,-14.85 0,-62.387 53.143,-112.963 118.701,-112.963 65.555,0 118.697,50.576 118.697,112.963 0,4.977 0.019,9.957 -0.086,14.884 3.347,0.088 6.5,0.242 6.998,0.442 C -1.108,-27.479 0.048,-0.293 0,0 Z"
             style="fill:none;stroke:#ffffff;stroke-width:7;stroke-linecap:butt;stroke-linejoin:miter;stroke-miterlimit:10;stroke-dasharray:none;stroke-opacity:1"
             id="path26"
             inkscape:connector-curvature="0" /></g><g
           id="g28"
           transform="translate(1060.2363,521.2158)"><path
             d="m 0,0 c -6.741,-20.072 -15.162,-37.322 -34.262,-46.904 -28.867,-14.481 -59.277,-18.549 -91.103,-12.391 -15.355,2.973 -30.092,7.619 -43.542,15.617 -16.037,9.541 -23.822,24.741 -30.027,42.418 5.223,18.723 -15.604,116.365 34.987,119.627 33.468,0 46.711,-22.533 25.543,-72.564 -0.702,-12.971 -2.568,-65.811 9.721,-71.043 2.67,-1.135 5.527,-1.906 8.075,-3.246 19.188,-10.116 37.11,-4.963 54.67,4.285 3.974,2.092 16.078,40.455 7.064,72.42 -14.677,52.041 8.209,66.599 27.582,70.148 C 25.622,118.367 -6.575,25.783 0,0"
             style="fill:#ffffff;fill-opacity:1;fill-rule:evenodd;stroke:none"
             id="path30"
             inkscape:connector-curvature="0" /></g><g
           id="g32"
           transform="translate(960.6992,542.7314)"><path
             d="m 0,0 c 4.888,-2.793 9.174,-5.342 13.523,-7.719 15.275,-8.34 15.272,-8.306 4.426,-22.478 -4.658,-6.106 -9.342,-12.194 -13.866,-18.424 -2.651,-3.65 -4.797,-4.057 -7.677,-0.117 -6.883,9.445 -14.071,18.605 -21.052,27.953 -1.037,1.398 -3.751,3.492 -1.458,4.998 C -17.553,-10.172 -8.674,-5.178 0,0"
             style="fill:#f7931d;fill-opacity:1;fill-rule:evenodd;stroke:none"
             id="path34"
             inkscape:connector-curvature="0" /></g><g
           id="g36"
           transform="translate(857.4209,616.0498)"><path
             d="m 0,0 202.434,0 12.5,-18.5 -15,-65.018 c 0,0 -36,-7.982 -72,4.059 -7.468,2.498 -17.522,26.959 -17.522,26.959 L 95.579,-52 c 0,0 -8.078,-24.414 -15.145,-27.195 -46.5,-18.305 -73.5,-0.264 -73.5,-0.264 l -16,63.652 L 0,0 Z"
             style="fill:#ffffff;fill-opacity:1;fill-rule:evenodd;stroke:none"
             id="path38"
             inkscape:connector-curvature="0" /></g><g
           id="g40"
           transform="translate(1025.1045,531.7412)"><path
             d="m 0,0 c 0.008,-0.123 0.015,-0.244 0.021,-0.365 6.565,0.445 13.151,0.693 19.686,1.402 4.659,0.506 8.807,2.434 11.927,6.19 2.179,2.623 3.069,5.783 3.823,8.962 0.814,3.436 1.348,6.938 2.009,10.411 1.155,6.06 2.318,12.121 3.472,18.183 0.745,3.912 1.49,7.826 2.212,11.744 0.226,1.227 0.168,2.545 0.6,3.686 1.205,3.189 0.007,6.057 -1.244,8.764 -2.052,4.437 -5.606,7.519 -9.914,9.804 -5.133,2.723 -10.593,4.272 -16.369,4.135 -5.574,-0.131 -11.135,-0.752 -16.702,-1.15 -8.25,-0.59 -16.499,-1.231 -24.754,-1.739 -6.518,-0.402 -13.045,-0.64 -19.569,-0.945 -2.59,-0.123 -5.179,-0.293 -7.77,-0.328 -7.335,-0.104 -14.675,-0.326 -22.005,-0.168 -7.721,0.17 -15.434,0.715 -23.15,1.115 -3.733,0.195 -7.465,0.412 -11.196,0.654 -5.618,0.366 -11.236,0.747 -16.853,1.147 -3.379,0.242 -6.751,0.615 -10.134,0.783 -4.27,0.215 -8.596,0.752 -12.809,0.311 -8.797,-0.926 -16.467,-4.328 -21.511,-12.092 -2.168,-3.338 -3.039,-6.992 -2.168,-10.983 0.899,-4.128 1.733,-8.271 2.577,-12.412 0.546,-2.681 1.064,-5.367 1.584,-8.052 1.134,-5.864 2.243,-11.731 3.399,-17.588 0.597,-3.024 1.163,-6.059 1.937,-9.037 1.168,-4.495 4.177,-7.524 8.257,-9.493 5.13,-2.472 10.714,-2.752 16.246,-2.83 7.632,-0.109 15.274,0.006 22.905,0.245 6.15,0.193 12.224,1.138 18.116,2.996 3.356,1.058 6.602,2.414 8.968,5.156 3.32,3.848 5.62,8.295 7.421,13.031 1.06,2.789 2.2,5.555 3.461,8.26 0.912,1.957 2.204,3.736 4.227,4.687 5.692,2.674 11.548,2.584 17.279,0.332 1.628,-0.638 3.13,-2.191 4.127,-3.697 1.33,-2.004 2.102,-4.377 3.123,-6.586 1.858,-4.013 3.564,-8.107 5.636,-12.006 1.498,-2.82 3.556,-5.441 6.534,-6.793 3.202,-1.453 6.546,-2.74 9.959,-3.546 C -17.895,0.123 -8.955,-0.16 0,0 M 61.246,39.775 C 60.349,39.414 50.84,39.205 47.095,39.256 45.832,39.275 45.352,38.764 45.165,37.545 44.409,32.625 43.58,27.715 42.751,22.805 42.163,19.32 41.598,15.832 40.909,12.367 39.13,3.426 33.637,-1.926 24.721,-3.348 19.226,-4.225 13.623,-4.584 8.055,-4.797 1.729,-5.037 -4.624,-5.07 -10.948,-4.803 c -8.878,0.375 -17.699,1.274 -26.239,4.08 -5.385,1.772 -9.122,5.176 -11.357,10.282 -1.993,4.55 -3.809,9.177 -5.816,13.718 -1.324,2.994 -3.004,5.719 -6.244,7.119 -4.425,1.915 -9.862,0.083 -12.13,-4.419 -1.381,-2.743 -2.34,-5.694 -3.605,-8.498 -2.059,-4.573 -3.92,-9.26 -7.039,-13.268 -1.886,-2.422 -4.589,-3.656 -7.347,-4.67 -6.183,-2.27 -12.65,-3.268 -19.179,-3.789 -5.069,-0.404 -10.156,-0.738 -15.237,-0.795 -5.435,-0.059 -10.878,0.164 -16.309,0.422 -3.53,0.168 -7.075,0.443 -10.565,0.982 -5.069,0.785 -9.78,2.53 -13.198,6.633 -2.339,2.807 -3.703,6.082 -4.266,9.713 -0.764,4.92 -1.601,9.83 -2.435,14.738 -0.55,3.239 -1.162,6.465 -1.721,9.701 -0.3,1.741 -0.66,2.086 -2.458,2.09 -3.547,0.008 -12.449,0.096 -13.302,0.332 -1.203,0.332 -2.222,0.987 -2.267,2.436 -0.027,0.885 -0.091,24.975 0.109,26.037 0.267,1.402 1.78,2.301 3.759,2.35 2.246,0.054 4.495,0.056 6.741,0.005 1.164,-0.027 1.565,0.36 1.783,1.584 1.074,5.991 4.283,10.733 8.909,14.598 5.897,4.928 12.717,7.639 20.321,8.291 2.311,0.199 4.676,-0.125 7.01,-0.297 4.472,-0.332 8.938,-0.738 13.409,-1.088 5.067,-0.394 10.136,-0.771 15.205,-1.13 3.48,-0.247 6.963,-0.461 10.446,-0.668 6.567,-0.393 13.131,-0.836 19.701,-1.133 4.984,-0.225 9.975,-0.301 14.963,-0.36 4.894,-0.058 9.794,-0.146 14.683,0.024 7.62,0.265 15.233,0.726 22.849,1.131 5.524,0.291 11.049,0.586 16.57,0.947 4.872,0.32 9.738,0.738 14.607,1.109 4.274,0.328 8.548,0.645 12.821,0.977 1.838,0.144 3.672,0.32 5.509,0.48 4.413,0.383 8.662,-0.437 12.781,-1.906 5.134,-1.832 9.764,-4.539 13.55,-8.521 3.428,-3.606 6.106,-7.631 6.473,-12.791 0.073,-1.018 0.615,-1.239 1.479,-1.233 2.147,0.014 4.295,0.029 6.442,-0.008 2.075,-0.035 4.063,-0.216 4.504,-2.902 0.048,-0.293 -1.108,-27.479 -1.716,-27.725"
             style="fill:#231f20;fill-opacity:1;fill-rule:evenodd;stroke:none"
             id="path42"
             inkscape:connector-curvature="0" /></g><g
           id="g44"
           transform="translate(1017.9131,540.6201)"><path
             d="m 0,0 c 0.007,-0.094 0.015,-0.184 0.02,-0.273 5.876,0.328 11.771,0.515 17.623,1.043 4.17,0.378 7.883,1.812 10.677,4.609 1.951,1.953 2.747,4.305 3.422,6.672 0.73,2.562 1.206,5.168 1.799,7.754 1.033,4.515 2.075,9.027 3.107,13.539 0.667,2.914 1.335,5.828 1.982,8.746 0.201,0.914 0.543,7.258 -0.577,9.273 -1.556,10.27 -18.065,13.543 -23.203,13.02 -45.802,-4.664 -95.409,-4.953 -148.949,0.668 -7.874,-0.69 -10.423,-1.461 -16.541,-8.074 -4.634,-5.01 -4.472,-9.684 -3.694,-12.657 0.805,-3.074 1.552,-6.16 2.307,-9.242 0.49,-1.996 0.953,-3.996 1.418,-5.996 1.015,-4.367 2.008,-8.738 3.044,-13.098 0.533,-2.25 1.04,-4.511 1.733,-6.73 1.045,-3.344 3.739,-5.602 7.392,-7.066 4.593,-1.844 9.591,-2.051 14.543,-2.11 6.834,-0.078 13.674,0.004 20.505,0.184 5.506,0.144 10.945,0.847 16.218,2.23 3.006,0.789 5.91,1.797 8.028,3.84 2.973,2.863 5.032,6.176 6.645,9.703 0.949,2.078 1.969,4.137 3.098,6.152 0.815,1.458 1.972,2.782 3.784,3.489 5.095,1.992 10.339,1.926 15.467,0.25 1.459,-0.477 2.804,-1.633 3.696,-2.754 1.19,-1.496 1.881,-3.262 2.796,-4.906 1.663,-2.989 3.19,-6.036 5.045,-8.938 1.343,-2.101 3.184,-4.055 5.85,-5.058 2.866,-1.082 5.86,-2.043 8.914,-2.641 C -16.02,0.09 -8.016,-0.121 0,0 M 40.434,27.953 C 39.757,24.293 39.015,20.637 38.272,16.98 37.745,14.387 37.238,11.789 36.623,9.207 35.03,2.551 30.113,-1.437 22.131,-2.496 17.211,-3.148 12.196,-3.418 7.211,-3.574 1.549,-3.754 -4.14,-3.777 -9.801,-3.578 c -7.948,0.277 -15.845,0.945 -23.489,3.039 -4.82,1.316 -8.165,3.852 -10.167,7.656 -1.784,3.387 -3.41,6.832 -5.208,10.215 -1.184,2.227 -2.688,4.258 -5.589,5.301 -3.961,1.426 -8.829,0.058 -10.858,-3.289 -1.237,-2.043 -2.095,-4.242 -3.228,-6.332 -1.844,-3.403 -3.51,-6.895 -6.301,-9.879 -1.689,-1.801 -4.109,-2.723 -6.578,-3.477 -5.534,-1.691 -11.324,-2.433 -17.17,-2.824 -4.537,-0.297 -9.09,-0.547 -13.639,-0.59 -4.866,-0.043 -9.738,0.121 -14.6,0.317 -3.161,0.125 -6.335,0.328 -9.458,0.726 -4.538,0.586 -8.756,1.887 -11.815,4.942 -2.094,2.089 -3.316,4.527 -3.821,7.234 -0.683,3.66 -1.432,7.316 -2.178,10.976 -0.493,2.411 -1.04,4.813 -1.541,7.223 -0.269,1.297 -5.241,25.028 -5.045,25.938 0.962,4.461 3.835,7.992 7.975,10.871 5.281,3.67 11.386,5.687 18.193,6.174 2.069,0.148 4.186,-0.092 6.275,-0.221 4.003,-0.246 8.002,-0.551 12.005,-0.811 4.535,-0.295 9.072,-0.574 13.611,-0.841 3.115,-0.184 6.234,-0.344 9.352,-0.497 5.879,-0.293 11.754,-0.625 17.637,-0.843 4.46,-0.168 8.929,-0.227 13.394,-0.27 4.381,-0.043 8.769,-0.109 13.145,0.02 6.822,0.195 13.636,0.539 20.454,0.84 4.946,0.218 9.892,0.437 14.835,0.707 4.361,0.238 8.716,0.548 13.076,0.824 3.826,0.246 7.652,0.48 11.477,0.728 1.645,0.108 3.288,0.239 4.933,0.358 3.95,0.285 7.753,-0.324 11.441,-1.418 4.598,-1.365 8.742,-3.383 12.131,-6.348 3.069,-2.683 5.466,-5.682 5.794,-9.523 C 45.308,52.59 40.6,28.863 40.434,27.953"
             style="fill:#231f20;fill-opacity:1;fill-rule:evenodd;stroke:none"
             id="path46"
             inkscape:connector-curvature="0" /></g><g
           id="g48"
           transform="translate(915.4687,590.5459)"><path
             d="m 0,0 c 1.06,-0.9 1.059,-2.641 -0.003,-3.889 l -24.09,-28.384 c -1.06,-1.248 -2.779,-1.532 -3.841,-0.633 -1.058,0.9 -1.057,2.64 0.003,3.892 L -3.839,-0.633 C -2.78,0.617 -1.061,0.9 0,0"
             style="fill:#231f20;fill-opacity:1;fill-rule:evenodd;stroke:none"
             id="path50"
             inkscape:connector-curvature="0" /></g><g
           id="g52"
           transform="translate(920.3076,577.5771)"><path
             d="M 0,0 C 1.061,-0.9 1.328,-2.324 0.601,-3.186 L -15.948,-22.68 c -0.729,-0.859 -2.18,-0.824 -3.239,0.075 -1.06,0.9 -1.329,2.324 -0.6,3.183 L -3.239,0.074 C -2.511,0.934 -1.061,0.898 0,0"
             style="fill:#231f20;fill-opacity:1;fill-rule:evenodd;stroke:none"
             id="path54"
             inkscape:connector-curvature="0" /></g><g
           id="g56"
           transform="translate(901.8838,593.2139)"><path
             d="m 0,0 c 1.061,-0.9 1.329,-2.324 0.602,-3.184 l -16.55,-19.496 c -0.729,-0.855 -2.178,-0.824 -3.239,0.075 -1.06,0.9 -1.329,2.328 -0.6,3.185 L -3.237,0.074 C -2.509,0.932 -1.059,0.898 0,0"
             style="fill:#231f20;fill-opacity:1;fill-rule:evenodd;stroke:none"
             id="path58"
             inkscape:connector-curvature="0" /></g></g></g><text
       transform="scale(1.0140906,-0.98610519)"
       style="font-variant:normal;font-weight:800;font-stretch:normal;font-size:253.12564087px;line-height:1000%;font-family:'Montserrat Extra Bold';-inkscape-font-specification:Montserrat-ExtraBold;writing-mode:lr-tb;fill:#231f20;fill-opacity:1;fill-rule:nonzero;stroke:none"
       id="text60"
       x="517.81537"
       y="-510.86646"
       sodipodi:linespacing="1000%"
       inkscape:export-xdpi="90"
       inkscape:export-ydpi="90"><tspan
         sodipodi:role="line"
         id="tspan64"
         style="font-style:normal;font-variant:normal;font-weight:bold;font-stretch:normal;font-size:200px;font-family:'Open Sans';-inkscape-font-specification:'Open Sans Bold'"
         x="517.81537"
         y="-510.86646">TUXLAB</tspan></text>
</g></svg>